<svg xmlns="http://www.w3.org/2000/svg" viewBox="0 0 1200 800">
  <defs>
    <radialGradient id="glow" cx="50%" cy="50%" r="50%">
      <stop offset="0%" stop-color="#ffffff" stop-opacity="0.8"/>
      <stop offset="100%" stop-color="#ffffff" stop-opacity="0"/>
    </radialGradient>
  </defs>

  <!-- Deep space background -->
  <rect width="1200" height="800" fill="#0a0a2e"/>

  <!-- Tiny white stars -->
  <circle cx="45" cy="23" r="0.5" fill="#ffffff" opacity="0.7"/>
  <circle cx="112" cy="67" r="0.6" fill="#ffffff" opacity="0.8"/>
  <circle cx="198" cy="45" r="0.4" fill="#ffffff" opacity="0.6"/>
  <circle cx="267" cy="112" r="0.5" fill="#ffffff" opacity="0.9"/>
  <circle cx="340" cy="34" r="0.7" fill="#ffffff" opacity="0.7"/>
  <circle cx="423" cy="89" r="0.4" fill="#ffffff" opacity="0.5"/>
  <circle cx="510" cy="56" r="0.6" fill="#ffffff" opacity="0.8"/>
  <circle cx="589" cy="22" r="0.5" fill="#ffffff" opacity="0.6"/>
  <circle cx="667" cy="78" r="0.4" fill="#ffffff" opacity="0.7"/>
  <circle cx="734" cy="41" r="0.6" fill="#ffffff" opacity="0.9"/>
  <circle cx="812" cy="95" r="0.5" fill="#ffffff" opacity="0.6"/>
  <circle cx="890" cy="33" r="0.4" fill="#ffffff" opacity="0.8"/>
  <circle cx="956" cy="72" r="0.7" fill="#ffffff" opacity="0.7"/>
  <circle cx="1034" cy="48" r="0.5" fill="#ffffff" opacity="0.5"/>
  <circle cx="1112" cy="88" r="0.6" fill="#ffffff" opacity="0.9"/>
  <circle cx="1178" cy="29" r="0.4" fill="#ffffff" opacity="0.7"/>

  <!-- Row 2 -->
  <circle cx="23" cy="145" r="0.6" fill="#ffffff" opacity="0.8"/>
  <circle cx="89" cy="178" r="0.5" fill="#ffffff" opacity="0.6"/>
  <circle cx="156" cy="134" r="0.4" fill="#ffffff" opacity="0.9"/>
  <circle cx="234" cy="198" r="0.7" fill="#ffffff" opacity="0.7"/>
  <circle cx="312" cy="156" r="0.5" fill="#ffffff" opacity="0.5"/>
  <circle cx="389" cy="189" r="0.6" fill="#ffffff" opacity="0.8"/>
  <circle cx="467" cy="145" r="0.4" fill="#ffffff" opacity="0.6"/>
  <circle cx="545" cy="178" r="0.5" fill="#ffffff" opacity="0.9"/>
  <circle cx="623" cy="134" r="0.7" fill="#ffffff" opacity="0.7"/>
  <circle cx="701" cy="198" r="0.4" fill="#ffffff" opacity="0.8"/>
  <circle cx="778" cy="156" r="0.6" fill="#ffffff" opacity="0.5"/>
  <circle cx="856" cy="189" r="0.5" fill="#ffffff" opacity="0.9"/>
  <circle cx="934" cy="145" r="0.4" fill="#ffffff" opacity="0.6"/>
  <circle cx="1012" cy="178" r="0.7" fill="#ffffff" opacity="0.7"/>
  <circle cx="1089" cy="156" r="0.5" fill="#ffffff" opacity="0.8"/>
  <circle cx="1167" cy="134" r="0.6" fill="#ffffff" opacity="0.9"/>

  <!-- Row 3 -->
  <circle cx="56" cy="256" r="0.5" fill="#ffffff" opacity="0.7"/>
  <circle cx="134" cy="289" r="0.4" fill="#ffffff" opacity="0.9"/>
  <circle cx="212" cy="234" r="0.6" fill="#ffffff" opacity="0.6"/>
  <circle cx="289" cy="267" r="0.5" fill="#ffffff" opacity="0.8"/>
  <circle cx="367" cy="245" r="0.7" fill="#ffffff" opacity="0.5"/>
  <circle cx="445" cy="278" r="0.4" fill="#ffffff" opacity="0.7"/>
  <circle cx="523" cy="234" r="0.6" fill="#ffffff" opacity="0.9"/>
  <circle cx="601" cy="289" r="0.5" fill="#ffffff" opacity="0.6"/>
  <circle cx="678" cy="256" r="0.4" fill="#ffffff" opacity="0.8"/>
  <circle cx="756" cy="278" r="0.7" fill="#ffffff" opacity="0.7"/>
  <circle cx="834" cy="234" r="0.5" fill="#ffffff" opacity="0.5"/>
  <circle cx="912" cy="267" r="0.6" fill="#ffffff" opacity="0.9"/>
  <circle cx="989" cy="245" r="0.4" fill="#ffffff" opacity="0.8"/>
  <circle cx="1067" cy="289" r="0.5" fill="#ffffff" opacity="0.6"/>
  <circle cx="1145" cy="256" r="0.7" fill="#ffffff" opacity="0.7"/>

  <!-- Row 4 -->
  <circle cx="34" cy="345" r="0.4" fill="#ffffff" opacity="0.8"/>
  <circle cx="112" cy="378" r="0.6" fill="#ffffff" opacity="0.6"/>
  <circle cx="189" cy="334" r="0.5" fill="#ffffff" opacity="0.9"/>
  <circle cx="267" cy="367" r="0.7" fill="#ffffff" opacity="0.5"/>
  <circle cx="345" cy="389" r="0.4" fill="#ffffff" opacity="0.7"/>
  <circle cx="423" cy="345" r="0.6" fill="#ffffff" opacity="0.8"/>
  <circle cx="501" cy="378" r="0.5" fill="#ffffff" opacity="0.6"/>
  <circle cx="578" cy="356" r="0.4" fill="#ffffff" opacity="0.9"/>
  <circle cx="656" cy="389" r="0.7" fill="#ffffff" opacity="0.7"/>
  <circle cx="734" cy="334" r="0.5" fill="#ffffff" opacity="0.5"/>
  <circle cx="812" cy="367" r="0.6" fill="#ffffff" opacity="0.8"/>
  <circle cx="889" cy="345" r="0.4" fill="#ffffff" opacity="0.9"/>
  <circle cx="967" cy="378" r="0.5" fill="#ffffff" opacity="0.6"/>
  <circle cx="1045" cy="356" r="0.7" fill="#ffffff" opacity="0.7"/>
  <circle cx="1123" cy="389" r="0.6" fill="#ffffff" opacity="0.8"/>

  <!-- Row 5 -->
  <circle cx="67" cy="445" r="0.5" fill="#ffffff" opacity="0.9"/>
  <circle cx="145" cy="467" r="0.4" fill="#ffffff" opacity="0.7"/>
  <circle cx="223" cy="423" r="0.6" fill="#ffffff" opacity="0.6"/>
  <circle cx="301" cy="456" r="0.5" fill="#ffffff" opacity="0.8"/>
  <circle cx="378" cy="434" r="0.7" fill="#ffffff" opacity="0.5"/>
  <circle cx="456" cy="467" r="0.4" fill="#ffffff" opacity="0.9"/>
  <circle cx="534" cy="423" r="0.6" fill="#ffffff" opacity="0.7"/>
  <circle cx="612" cy="456" r="0.5" fill="#ffffff" opacity="0.6"/>
  <circle cx="689" cy="445" r="0.4" fill="#ffffff" opacity="0.8"/>
  <circle cx="767" cy="467" r="0.7" fill="#ffffff" opacity="0.9"/>
  <circle cx="845" cy="423" r="0.5" fill="#ffffff" opacity="0.5"/>
  <circle cx="923" cy="456" r="0.6" fill="#ffffff" opacity="0.7"/>
  <circle cx="1001" cy="434" r="0.4" fill="#ffffff" opacity="0.8"/>
  <circle cx="1078" cy="467" r="0.5" fill="#ffffff" opacity="0.6"/>
  <circle cx="1156" cy="445" r="0.7" fill="#ffffff" opacity="0.9"/>

  <!-- Row 6 -->
  <circle cx="45" cy="534" r="0.6" fill="#ffffff" opacity="0.6"/>
  <circle cx="123" cy="556" r="0.5" fill="#ffffff" opacity="0.8"/>
  <circle cx="201" cy="512" r="0.4" fill="#ffffff" opacity="0.9"/>
  <circle cx="278" cy="545" r="0.7" fill="#ffffff" opacity="0.7"/>
  <circle cx="356" cy="523" r="0.5" fill="#ffffff" opacity="0.5"/>
  <circle cx="434" cy="556" r="0.6" fill="#ffffff" opacity="0.8"/>
  <circle cx="512" cy="512" r="0.4" fill="#ffffff" opacity="0.6"/>
  <circle cx="589" cy="545" r="0.5" fill="#ffffff" opacity="0.9"/>
  <circle cx="667" cy="534" r="0.7" fill="#ffffff" opacity="0.7"/>
  <circle cx="745" cy="556" r="0.4" fill="#ffffff" opacity="0.8"/>
  <circle cx="823" cy="512" r="0.6" fill="#ffffff" opacity="0.5"/>
  <circle cx="901" cy="545" r="0.5" fill="#ffffff" opacity="0.9"/>
  <circle cx="978" cy="523" r="0.4" fill="#ffffff" opacity="0.6"/>
  <circle cx="1056" cy="556" r="0.7" fill="#ffffff" opacity="0.7"/>
  <circle cx="1134" cy="534" r="0.5" fill="#ffffff" opacity="0.8"/>

  <!-- Row 7 -->
  <circle cx="78" cy="623" r="0.4" fill="#ffffff" opacity="0.7"/>
  <circle cx="156" cy="656" r="0.6" fill="#ffffff" opacity="0.9"/>
  <circle cx="234" cy="612" r="0.5" fill="#ffffff" opacity="0.5"/>
  <circle cx="312" cy="645" r="0.4" fill="#ffffff" opacity="0.8"/>
  <circle cx="389" cy="623" r="0.7" fill="#ffffff" opacity="0.6"/>
  <circle cx="467" cy="656" r="0.5" fill="#ffffff" opacity="0.9"/>
  <circle cx="545" cy="612" r="0.6" fill="#ffffff" opacity="0.7"/>
  <circle cx="623" cy="645" r="0.4" fill="#ffffff" opacity="0.8"/>
  <circle cx="701" cy="623" r="0.5" fill="#ffffff" opacity="0.5"/>
  <circle cx="778" cy="656" r="0.7" fill="#ffffff" opacity="0.9"/>
  <circle cx="856" cy="612" r="0.4" fill="#ffffff" opacity="0.6"/>
  <circle cx="934" cy="645" r="0.6" fill="#ffffff" opacity="0.7"/>
  <circle cx="1012" cy="623" r="0.5" fill="#ffffff" opacity="0.8"/>
  <circle cx="1089" cy="656" r="0.4" fill="#ffffff" opacity="0.9"/>
  <circle cx="1167" cy="612" r="0.7" fill="#ffffff" opacity="0.5"/>

  <!-- Row 8 -->
  <circle cx="56" cy="723" r="0.5" fill="#ffffff" opacity="0.8"/>
  <circle cx="134" cy="756" r="0.4" fill="#ffffff" opacity="0.6"/>
  <circle cx="212" cy="712" r="0.7" fill="#ffffff" opacity="0.9"/>
  <circle cx="289" cy="745" r="0.5" fill="#ffffff" opacity="0.7"/>
  <circle cx="367" cy="723" r="0.6" fill="#ffffff" opacity="0.5"/>
  <circle cx="445" cy="756" r="0.4" fill="#ffffff" opacity="0.8"/>
  <circle cx="523" cy="712" r="0.5" fill="#ffffff" opacity="0.9"/>
  <circle cx="601" cy="745" r="0.7" fill="#ffffff" opacity="0.6"/>
  <circle cx="678" cy="723" r="0.4" fill="#ffffff" opacity="0.7"/>
  <circle cx="756" cy="756" r="0.6" fill="#ffffff" opacity="0.8"/>
  <circle cx="834" cy="712" r="0.5" fill="#ffffff" opacity="0.9"/>
  <circle cx="912" cy="745" r="0.4" fill="#ffffff" opacity="0.5"/>
  <circle cx="989" cy="723" r="0.7" fill="#ffffff" opacity="0.7"/>
  <circle cx="1067" cy="756" r="0.5" fill="#ffffff" opacity="0.8"/>
  <circle cx="1145" cy="712" r="0.6" fill="#ffffff" opacity="0.6"/>

  <!-- Slightly larger/brighter accent stars -->
  <circle cx="178" cy="89" r="1.2" fill="#ffffff" opacity="0.9"/>
  <circle cx="534" cy="312" r="1.0" fill="#ffffff" opacity="0.85"/>
  <circle cx="890" cy="178" r="1.1" fill="#ffffff" opacity="0.9"/>
  <circle cx="345" cy="534" r="1.3" fill="#ffffff" opacity="0.85"/>
  <circle cx="723" cy="623" r="1.0" fill="#ffffff" opacity="0.9"/>
  <circle cx="1067" cy="445" r="1.2" fill="#ffffff" opacity="0.85"/>
  <circle cx="156" cy="712" r="1.1" fill="#ffffff" opacity="0.9"/>
  <circle cx="478" cy="145" r="1.0" fill="#ffffff" opacity="0.85"/>
  <circle cx="945" cy="534" r="1.3" fill="#ffffff" opacity="0.9"/>
  <circle cx="67" cy="389" r="1.1" fill="#ffffff" opacity="0.85"/>
  <circle cx="1145" cy="345" r="1.0" fill="#ffffff" opacity="0.9"/>

  <!-- Pale blue tinted stars -->
  <circle cx="256" cy="167" r="0.8" fill="#aaccff" opacity="0.8"/>
  <circle cx="623" cy="423" r="0.9" fill="#aaccff" opacity="0.75"/>
  <circle cx="978" cy="289" r="0.7" fill="#aaccff" opacity="0.85"/>
  <circle cx="134" cy="534" r="0.8" fill="#aaccff" opacity="0.7"/>
  <circle cx="812" cy="712" r="0.9" fill="#aaccff" opacity="0.8"/>
  <circle cx="445" cy="656" r="0.7" fill="#aaccff" opacity="0.75"/>
  <circle cx="1089" cy="112" r="0.8" fill="#aaccff" opacity="0.85"/>
  <circle cx="356" cy="378" r="0.9" fill="#aaccff" opacity="0.7"/>

  <!-- Pale yellow tinted stars -->
  <circle cx="401" cy="89" r="0.8" fill="#ffeebb" opacity="0.75"/>
  <circle cx="734" cy="345" r="0.7" fill="#ffeebb" opacity="0.8"/>
  <circle cx="89" cy="267" r="0.9" fill="#ffeebb" opacity="0.7"/>
  <circle cx="1023" cy="623" r="0.8" fill="#ffeebb" opacity="0.85"/>
  <circle cx="567" cy="534" r="0.7" fill="#ffeebb" opacity="0.75"/>
  <circle cx="189" cy="445" r="0.9" fill="#ffeebb" opacity="0.8"/>
  <circle cx="856" cy="467" r="0.8" fill="#ffeebb" opacity="0.7"/>
  <circle cx="1156" cy="734" r="0.7" fill="#ffeebb" opacity="0.85"/>

  <!-- Subtle star glow on a few bright stars -->
  <circle cx="534" cy="312" r="4" fill="url(#glow)" opacity="0.15"/>
  <circle cx="345" cy="534" r="5" fill="url(#glow)" opacity="0.12"/>
  <circle cx="890" cy="178" r="4" fill="url(#glow)" opacity="0.15"/>
  <circle cx="1067" cy="445" r="4.5" fill="url(#glow)" opacity="0.1"/>
  <circle cx="723" cy="623" r="4" fill="url(#glow)" opacity="0.12"/>

  <!-- Edge-matching stars (left edge mirrors near right edge for tiling) -->
  <circle cx="3" cy="112" r="0.5" fill="#ffffff" opacity="0.7"/>
  <circle cx="1197" cy="112" r="0.5" fill="#ffffff" opacity="0.7"/>
  <circle cx="5" cy="312" r="0.6" fill="#ffffff" opacity="0.8"/>
  <circle cx="1195" cy="312" r="0.6" fill="#ffffff" opacity="0.8"/>
  <circle cx="2" cy="512" r="0.4" fill="#ffffff" opacity="0.9"/>
  <circle cx="1198" cy="512" r="0.4" fill="#ffffff" opacity="0.9"/>
  <circle cx="4" cy="689" r="0.5" fill="#ffffff" opacity="0.7"/>
  <circle cx="1196" cy="689" r="0.5" fill="#ffffff" opacity="0.7"/>
</svg>